<svg width="167" height="27" viewBox="0 0 167 27" fill="none" xmlns="http://www.w3.org/2000/svg">
<path d="M6.9972 25.1895L20.9916 16.7936V9.79644L6.9972 0L0 4.19794L13.9944 12.5938L6.9972 16.7936V25.1895Z" fill="#FEFEFE"/>
<path d="M22.2229 1.69385L36.2173 10.0897V17.0869L22.2229 26.8834L15.2257 22.6854L29.2201 14.2895L22.2229 10.0897V1.69385Z" fill="#FEFEFE"/>
<path d="M40.2173 23.4012V3.6974H48.0981C51.8204 3.6974 54.1966 5.88755 54.1966 8.76388C54.1966 10.578 53.6966 11.7981 52.6024 12.5482C54.5407 13.4243 55.4806 14.9884 55.4806 17.2387C55.4806 21.1791 52.6663 23.3994 47.9439 23.3994H40.2192L40.2173 23.4012ZM43.9697 7.13772V11.1721H47.692C49.5061 11.1721 50.2882 10.39 50.2882 9.13987C50.2882 7.82578 49.6001 7.13772 47.66 7.13772H43.9697ZM43.9697 14.6124V19.9609H47.786C50.4762 19.9609 51.5703 18.9608 51.5703 17.2406C51.5703 15.5204 50.4123 14.6143 47.786 14.6143H43.9697V14.6124Z" fill="#FEFEFE"/>
<path d="M64.0476 7.91985C68.364 7.91985 71.9284 11.2041 71.9284 15.8006C71.9284 20.3971 68.3621 23.6513 64.0476 23.6513C59.7331 23.6513 56.1349 20.3671 56.1349 15.8006C56.1349 11.2342 59.6692 7.91985 64.0476 7.91985ZM64.0476 19.993C66.2998 19.993 68.176 18.3668 68.176 15.7705C68.176 13.1743 66.2998 11.5801 64.0476 11.5801C61.7954 11.5801 59.8572 13.2063 59.8572 15.7705C59.8572 18.3348 61.7334 19.993 64.0476 19.993Z" fill="#FEFEFE"/>
<path d="M72.5863 8.07598H76.3086V16.3327C76.3086 18.929 77.4347 20.0551 79.4989 20.0551C82.1572 20.0551 83.6893 17.7728 83.6893 17.7728V8.07786H87.4417V23.4033H84.1574L83.7514 21.371C82.4692 22.8412 80.781 23.6552 78.7169 23.6552C75.1506 23.6552 72.5863 20.9349 72.5863 17.2426V8.07598Z" fill="#FEFEFE"/>
<path d="M103.079 23.4013H99.3569V15.2687C99.3569 12.6424 98.2308 11.5163 96.1666 11.5163C93.5084 11.5163 91.9762 13.7064 91.9762 13.7064V23.4013H88.2238V8.07595H91.6641L91.9762 10.1082C93.2264 8.67002 94.9165 7.91804 96.9487 7.91804C100.515 7.91804 103.079 10.6383 103.079 14.3306V23.4013Z" fill="#FEFEFE"/>
<path d="M115.995 3.22754H119.747V23.4014H116.307L116.025 21.6493C114.743 22.9633 113.022 23.6514 111.24 23.6514C107.05 23.6514 103.733 20.3671 103.733 15.8007C103.733 11.2343 107.048 7.91991 111.24 7.91991C113.022 7.91991 114.712 8.60797 115.995 9.8901V3.22754ZM111.648 11.5163C109.302 11.5163 107.394 13.1744 107.394 15.8007C107.394 18.427 109.302 20.0551 111.648 20.0551C113.994 20.0551 115.995 18.3969 115.995 15.8007C115.995 13.2045 114.056 11.5163 111.648 11.5163Z" fill="#FEFEFE"/>
<path d="M120.529 3.22754H124.281V23.4014H120.529V3.22754Z" fill="#FEFEFE"/>
<path d="M140.483 17.8968C139.951 21.3371 136.448 23.6513 132.82 23.6513C128.442 23.6513 124.907 20.3671 124.907 15.8006C124.907 11.2342 128.442 7.91985 132.82 7.91985C137.199 7.91985 140.483 10.7661 140.609 15.2705V16.7086H128.724C129.1 18.7409 130.788 19.993 132.82 19.993C134.384 19.993 135.822 19.2429 136.479 17.8968H140.483ZM136.322 13.7364C135.696 12.3923 134.414 11.5782 132.82 11.5782C131.226 11.5782 129.786 12.3923 129.098 13.7364H136.322Z" fill="#FEFEFE"/>
<path d="M153.462 19.147C153.462 21.8673 151.272 23.6514 147.676 23.6514C143.891 23.6514 141.357 21.1492 141.265 18.0209H145.017C145.173 19.2711 146.267 19.9911 147.738 19.9911C148.896 19.9911 149.708 19.6151 149.708 18.9271C149.708 17.2389 141.483 18.489 141.483 12.7025C141.483 10.0762 143.829 7.91804 147.425 7.91804C151.022 7.91804 153.212 10.2022 153.306 13.5786H149.522C149.304 12.2645 148.522 11.5764 147.301 11.5764C146.081 11.5764 145.205 12.0145 145.205 12.7965C145.205 15.0487 153.462 13.6726 153.462 19.1451V19.147Z" fill="#FEFEFE"/>
<path d="M166.159 19.147C166.159 21.8673 163.969 23.6514 160.373 23.6514C156.588 23.6514 154.054 21.1492 153.962 18.0209H157.714C157.87 19.2711 158.965 19.9911 160.435 19.9911C161.593 19.9911 162.405 19.6151 162.405 18.9271C162.405 17.2389 154.18 18.489 154.18 12.7025C154.18 10.0762 156.526 7.91804 160.123 7.91804C163.719 7.91804 165.909 10.2022 166.003 13.5786H162.219C162.001 12.2645 161.219 11.5764 159.999 11.5764C158.779 11.5764 157.902 12.0145 157.902 12.7965C157.902 15.0487 166.159 13.6726 166.159 19.1451V19.147Z" fill="#FEFEFE"/>
</svg>
